# xmcd
#
# Track frame offsets:
# 150
# 15878
# 27524
# 39712
# 51001
# 63938
# 76445
# 89237
# 100927
# 113688
# 126774
# 141283
# 154920
# 167113
# 179801
# 192514
# 204083
# 214927
# 227270
# 239002
#
# Disc length: 3350 seconds
#
# Revision: 0
# Processed by: cddbd v1.4PL0 Copyright (c) Steve Scherf et al.
# Submitted via: Audion 2.6.0 (http://www.panic.com/audion/)
#
DISCID=1a0d1414
DTITLE=Billie Holliday - The Incomparable. Vol 4
DYEAR=1900
DGENRE=
TTITLE0=Any Old Time
TTITLE1=The Very Thought Of You
TTITLE2=I Can't Get Started
TTITLE3=I've Got A Date With A Dream
TTITLE4=What Shall I Say?
TTITLE5=It's Easy To Blame The Weather
TTITLE6=More Than You Know
TTITLE7=Sugar
TTITLE8=Long Gone Blues
TTITLE9=Strange Fruit
TTITLE10=Yesterdays
TTITLE11=Fine And Mellow
TTITLE12=I Gotta Get Right To Sing The Blues
TTITLE13=Night And Day
TTITLE14=The Man I Love
TTITLE15=You're A Lucky Guy
TTITLE16=Ghost Of Yesterday
TTITLE17=Body And Soul
TTITLE18=Falling In love Again
TTITLE19=Laughing At Life
EXTD=
EXTT0=
EXTT1=
EXTT2=
EXTT3=
EXTT4=
EXTT5=
EXTT6=
EXTT7=
EXTT8=
EXTT9=
EXTT10=
EXTT11=
EXTT12=
EXTT13=
EXTT14=
EXTT15=
EXTT16=
EXTT17=
EXTT18=
EXTT19=
PLAYORDER=
